#!OML:ASF H:\Terrain\Patient Classification 1\Animal2\Wednesday\Animal2.ASF
:FULLY-SPECIFIED
:DEGREES
1714
root 21.2555 16.8709 -7.62196 34.0723 7.66826 -0.862951
lowerback 27.6163 -1.6216 -3.29963
upperback 1.22671 -3.15533 -0.370411
thorax -13.8981 -1.19383 2.68659
lowerneck 14.6428 15.7826 14.523
upperneck -35.1528 17.6495 -34.3759
head -7.81765 11.733 -16.9492
rclavicle -3.89618e-014 -7.95139e-015
rhumerus -56.7316 -14.4094 -64.0115
rradius 21.3445
rwrist 2.69462
rhand -16.1292 22.9419
rfingers 7.12502
rthumb 10.0755 -6.79686
lclavicle -3.89618e-014 -7.95139e-015
lhumerus -52.6643 6.96663 68.9669
lradius 34.9959
lwrist 42.441
lhand -32.2417 34.4659
lfingers 7.12502
lthumb -5.48206 64.375
rfemur -73.2289 1.56689 7.16847
rtibia 74.7881
rfoot -6.29984 -12.3736
rtoes 15.3114
lfemur -65.7443 4.13723 -10.998
ltibia 46.914
lfoot -17.6033 1.29803
ltoes -41.9053
1715
root 21.3185 16.9162 -7.57872 34.0308 8.01795 -0.969602
lowerback 27.5149 -1.92858 -3.33013
upperback 1.36345 -3.5462 -0.342088
thorax -13.6515 -1.37368 2.87497
lowerneck 14.771 15.8865 14.2912
upperneck -35.1121 17.7797 -34.1559
head -7.86063 11.7933 -16.8216
rclavicle 1.19271e-014 2.38542e-015
rhumerus -56.9835 -14.1121 -63.2737
rradius 21.0889
rwrist 3.12502
rhand -15.2004 22.2789
rfingers 7.12502
rthumb 10.9715 -7.41442
lclavicle 1.19271e-014 2.38542e-015
lhumerus -52.7056 6.47678 68.7069
lradius 36.2262
lwrist 43.4167
lhand -32.4096 34.94
lfingers 7.12502
lthumb -5.64421 64.8448
rfemur -74.2698 1.55777 7.45619
rtibia 76.1119
rfoot -4.34548 -12.0793
rtoes 18.9218
lfemur -65.2753 3.93477 -11.0269
ltibia 46.3077
lfoot -17.5626 0.986174
ltoes -40.929
1716
root 21.3791 16.9672 -7.52816 33.9774 8.35677 -1.00134
lowerback 27.3907 -2.1331 -3.37568
upperback 1.5006 -3.81658 -0.371971
thorax -13.4032 -1.50243 2.9563
lowerneck 14.9399 15.8844 14.2504
upperneck -34.9803 17.84 -33.8937
head -7.88213 11.7913 -16.7067
rclavicle -2.46493e-014 -2.38542e-014
rhumerus -57.4415 -13.8325 -62.6394
rradius 20.978
rwrist 3.22475
rhand -14.6432 21.7165
rfingers 7.12502
rthumb 11.5088 -7.94753
lclavicle -2.46493e-014 -2.38542e-014
lhumerus -52.3648 5.99722 68.1647
lradius 36.695
lwrist 43.8858
lhand -32.4856 35.1834
lfingers 7.12502
lthumb -5.71754 65.0862
rfemur -75.1329 1.50403 7.7056
rtibia 77.2754
rfoot -2.68157 -11.762
rtoes 20.5914
lfemur -64.7431 3.55879 -10.9958
ltibia 45.6729
lfoot -17.5317 0.272554
ltoes -38.0483
1717
root 21.435 17.0176 -7.47277 33.8566 8.61872 -0.947287
lowerback 27.3376 -2.23372 -3.52068
upperback 1.68441 -3.99089 -0.459895
thorax -13.1429 -1.58541 2.99314
lowerneck 15.0226 15.752 14.2916
upperneck -34.8807 17.726 -33.6305
head -7.9364 11.6902 -16.6269
rclavicle 1.51076e-014 -6.36111e-015
rhumerus -57.9145 -14.0132 -61.5272
rradius 20.5917
rwrist 3.71137
rhand -14.1433 21.4553
rfingers 7.12502
rthumb 11.991 -8.1812
lclavicle 1.51076e-014 -6.36111e-015
lhumerus -51.6219 5.78948 67.2586
lradius 36.452
lwrist 43.7558
lhand -32.4245 34.8609
lfingers 7.12502
lthumb -5.65859 64.7654
rfemur -75.8227 1.57788 7.77921
rtibia 78.1997
rfoot -1.47207 -11.5148
rtoes 20.4578
lfemur -64.0598 3.18032 -11.086
ltibia 45.0156
lfoot -17.5392 0.0882581
ltoes -37.3745
1718
root 21.4903 17.061 -7.41541 33.7597 8.92477 -0.966676
lowerback 27.2991 -2.33968 -3.58453
upperback 1.81113 -4.14582 -0.516329
thorax -12.9626 -1.66053 3.01484
lowerneck 15.0614 15.603 14.5311
upperneck -34.6437 17.6315 -33.4696
head -7.88529 11.5903 -16.5735
rclavicle -1.03368e-014 2.62396e-014
rhumerus -58.4804 -14.6918 -59.504
rradius 19.8511
rwrist 4.9295
rhand -13.5262 21.5409
rfingers 7.12502
rthumb 12.586 -8.05999
lclavicle -1.03368e-014 2.62396e-014
lhumerus -51.1408 5.27412 66.4693
lradius 36.5917
lwrist 43.8264
lhand -32.4002 34.2487
lfingers 7.12502
lthumb -5.63516 64.1538
rfemur -76.5131 1.67466 7.90921
rtibia 79.0059
rfoot -0.165298 -11.0178
rtoes 20.9078
lfemur -63.3997 2.90057 -11.1635
ltibia 44.3628
lfoot -17.6272 0.438328
ltoes -38.7106
